<svg width="20" height="20" viewBox="0 0 20 20" fill="none" xmlns="http://www.w3.org/2000/svg">
<path fill-rule="evenodd" clip-rule="evenodd" d="M15.1251 12.5152C16.2285 13.1283 17.3324 13.7415 18.4356 14.3547C18.9105 14.6184 19.1188 15.1779 18.9319 15.6881C17.9826 18.2814 15.2026 19.6502 12.5867 18.6955C7.23024 16.7404 3.25984 12.7698 1.30453 7.41333C0.349766 4.79749 1.71864 2.01734 4.31188 1.06813C4.82216 0.881172 5.38165 1.08948 5.64597 1.56437C6.25847 2.66767 6.87171 3.77162 7.48482 4.87486C7.77223 5.39244 7.70468 6.00681 7.3113 6.44879C6.79613 7.0285 6.28106 7.60809 5.76589 8.18719C6.86556 10.8651 9.13488 13.1344 11.8128 14.2341C12.3919 13.7189 12.9715 13.2038 13.5512 12.6887C13.9938 12.2953 14.6077 12.2277 15.1251 12.5152L15.1251 12.5152Z" fill="#FF4F08"/>
</svg>
