<svg width="30" height="31" viewBox="0 0 30 31" fill="none" xmlns="http://www.w3.org/2000/svg">
<path d="M25.6341 21.4947L16.973 6.78652C16.5089 5.97745 15.6839 5.5 14.7687 5.5C13.8534 5.5 13.0285 5.97745 12.5515 6.79969L4.36593 21.4947C3.88897 22.317 3.87608 23.3117 4.3401 24.1605C4.80421 24.996 5.64205 25.5 6.58316 25.5H23.4168C24.3579 25.5 25.1957 24.996 25.6599 24.1605C26.1239 23.3117 26.111 22.317 25.6341 21.4947Z" stroke="#FF586D"/>
<path d="M16 21.5C16 22.05 15.55 22.5 15 22.5C14.45 22.5 14 22.05 14 21.5C14 20.95 14.45 20.5 15 20.5C15.55 20.5 16 20.95 16 21.5Z" fill="#FF586D"/>
<path d="M15 18.3011V14.3011L15 10.3011" stroke="#FF586D" stroke-width="1.5" stroke-linecap="round" stroke-linejoin="round"/>
</svg>
